<?xml version="1.0" standalone="no"?>
<!DOCTYPE svg PUBLIC "-//W3C//DTD SVG 20010904//EN"
 "http://www.w3.org/TR/2001/REC-SVG-20010904/DTD/svg10.dtd">
<svg version="1.0" xmlns="http://www.w3.org/2000/svg"
 width="512.000000pt" height="512.000000pt" viewBox="0 0 512.000000 512.000000"
 preserveAspectRatio="xMidYMid meet">

<g transform="translate(0.000000,512.000000) scale(0.100000,-0.100000)"
fill="#000000" stroke="none">
<path d="M2331 5109 c-128 -11 -303 -43 -437 -78 -327 -86 -680 -267 -949
-486 -122 -99 -334 -318 -426 -440 -459 -612 -621 -1372 -453 -2122 113 -504
398 -986 787 -1330 138 -123 170 -143 226 -143 79 0 138 50 148 127 8 64 -16
102 -123 195 -460 396 -736 923 -793 1512 -54 552 106 1122 439 1566 309 414
760 714 1259 840 198 50 324 64 551 64 222 0 351 -15 539 -60 221 -54 463
-157 661 -280 l95 -59 -175 -5 c-147 -4 -180 -8 -203 -23 -94 -62 -87 -201 13
-254 43 -23 47 -23 419 -23 349 0 379 2 418 20 25 11 51 33 63 52 19 32 20 50
20 434 0 400 0 401 -23 435 -61 91 -181 89 -251 -5 -19 -25 -21 -45 -26 -237
l-5 -209 -67 49 c-160 116 -434 259 -627 326 -342 118 -724 165 -1080 134z"/>
<path d="M1538 3649 c-43 -22 -78 -81 -78 -129 0 -50 35 -107 80 -130 33 -17
59 -20 169 -20 l131 0 2 -842 c3 -822 3 -844 23 -877 59 -100 189 -106 252
-12 l23 34 0 947 0 947 -23 34 c-43 64 -65 69 -317 69 -204 -1 -228 -3 -262
-21z"/>
<path d="M4733 3590 c-51 -22 -83 -70 -83 -122 0 -56 106 -368 137 -400 32
-33 98 -51 143 -38 62 18 110 81 110 145 0 53 -98 341 -128 377 -28 33 -77 58
-114 58 -13 0 -42 -9 -65 -20z"/>
<path d="M2640 3553 c-19 -10 -45 -33 -57 -52 l-23 -34 0 -897 0 -897 23 -34
c61 -91 181 -89 251 5 20 26 21 44 26 414 5 374 6 389 29 445 33 82 78 137
141 170 49 25 63 28 127 25 80 -4 114 -22 147 -78 43 -74 49 -126 53 -535 4
-444 5 -448 78 -491 23 -13 56 -24 74 -24 52 0 108 35 132 82 21 40 21 49 16
447 -5 457 -10 497 -76 637 -83 174 -232 263 -441 264 -94 0 -189 -24 -272
-68 -4 -2 -8 118 -10 267 -3 254 -4 271 -24 297 -50 68 -129 91 -194 57z"/>
<path d="M4902 2713 c-64 -31 -76 -61 -84 -223 -14 -245 -14 -244 7 -280 42
-71 127 -99 198 -65 58 27 74 64 86 195 18 187 15 268 -12 314 -39 69 -123 95
-195 59z"/>
<path d="M4755 1836 c-44 -20 -72 -54 -99 -122 -13 -32 -45 -101 -70 -153 -52
-107 -58 -156 -26 -209 44 -72 142 -95 211 -48 36 25 98 136 159 290 33 82 37
120 16 170 -28 67 -124 103 -191 72z"/>
<path d="M4297 1080 c-28 -9 -282 -245 -304 -284 -7 -11 -12 -42 -13 -67 -1
-115 124 -186 223 -126 48 29 254 232 273 269 36 69 5 159 -66 196 -47 23 -68
26 -113 12z"/>
<path d="M3545 524 c-33 -14 -105 -44 -160 -66 -126 -51 -149 -68 -170 -123
-32 -81 4 -158 89 -190 54 -21 82 -14 265 63 142 60 182 89 201 148 23 69 -16
151 -87 180 -45 19 -69 17 -138 -12z"/>
<path d="M1520 478 c-52 -36 -72 -69 -72 -120 0 -49 18 -92 48 -120 39 -34
325 -138 381 -138 94 0 171 100 143 186 -22 65 -53 90 -158 125 -53 18 -128
45 -166 61 -84 34 -132 36 -176 6z"/>
<path d="M2564 301 c-121 -5 -155 -9 -177 -24 -102 -66 -85 -219 28 -263 40
-15 69 -16 215 -11 175 6 194 10 243 55 98 92 18 258 -121 250 -20 -1 -105 -4
-188 -7z"/>
</g>
</svg>
