<?xml version="1.0" standalone="no"?>
<!DOCTYPE svg PUBLIC "-//W3C//DTD SVG 20010904//EN"
 "http://www.w3.org/TR/2001/REC-SVG-20010904/DTD/svg10.dtd">
<svg version="1.0" xmlns="http://www.w3.org/2000/svg"
 width="512.000000pt" height="512.000000pt" viewBox="0 0 512.000000 512.000000"
 preserveAspectRatio="xMidYMid meet">

<g transform="translate(0.000000,512.000000) scale(0.100000,-0.100000)"
fill="#000000" stroke="none">
<path d="M2315 5109 c-597 -61 -1141 -318 -1563 -739 -1002 -1000 -1002 -2620
0 -3620 406 -405 901 -648 1493 -732 119 -17 512 -16 635 1 580 80 1087 329
1490 733 404 405 653 913 731 1493 7 50 13 156 13 236 1 142 0 146 -26 186
-41 63 -90 88 -169 88 -54 0 -72 -5 -106 -27 -72 -48 -85 -80 -95 -247 -16
-271 -61 -491 -144 -701 -289 -732 -919 -1235 -1699 -1357 -149 -24 -487 -23
-634 0 -952 154 -1670 872 -1818 1822 -24 151 -24 479 0 630 88 563 375 1053
820 1397 564 435 1321 563 2000 337 125 -41 359 -151 457 -213 l55 -36 -130 0
c-144 0 -187 -12 -237 -66 -35 -38 -48 -74 -48 -134 0 -86 38 -145 115 -181
37 -17 73 -19 460 -19 417 0 421 0 465 23 24 12 58 39 74 60 l31 39 0 458 0
458 -31 39 c-80 101 -220 108 -306 17 -44 -48 -51 -78 -56 -261 -2 -95 -6
-173 -7 -173 -2 0 -45 29 -96 63 -323 219 -707 364 -1104 417 -112 15 -462 21
-570 9z"/>
<path d="M1920 3404 c-145 -31 -258 -114 -312 -230 -25 -54 -31 -78 -31 -142
-2 -124 38 -172 143 -172 100 0 155 43 170 132 10 66 23 90 61 112 47 28 110
31 163 8 38 -18 50 -30 67 -68 51 -114 -16 -206 -300 -419 -182 -136 -263
-216 -302 -298 -28 -59 -29 -68 -29 -203 0 -133 1 -142 23 -162 53 -50 69 -52
479 -52 430 0 414 -3 449 74 10 22 19 55 19 71 0 40 -33 111 -58 124 -14 7
-119 11 -301 11 -312 0 -298 -4 -264 67 17 38 94 103 243 206 122 84 202 153
257 219 234 284 112 648 -242 723 -86 18 -150 18 -235 -1z"/>
<path d="M3083 3404 c-17 -9 -38 -23 -46 -32 -8 -10 -126 -235 -263 -502 -221
-432 -248 -490 -249 -533 0 -43 4 -52 33 -78 l32 -29 260 0 260 0 0 -118 c0
-90 4 -123 16 -140 50 -71 208 -79 277 -14 27 25 27 28 27 149 l0 123 56 0
c48 0 60 4 84 28 62 63 65 179 5 239 -29 29 -39 33 -89 33 l-56 0 0 81 c0 44
-5 89 -10 100 -36 67 -218 76 -284 14 -24 -22 -26 -31 -26 -110 l0 -85 -85 0
c-47 0 -85 2 -85 5 0 2 83 171 185 375 102 204 185 379 185 390 0 28 -49 80
-95 101 -49 23 -90 24 -132 3z"/>
</g>
</svg>
