<?xml version="1.0" standalone="no"?>
<!DOCTYPE svg PUBLIC "-//W3C//DTD SVG 20010904//EN"
 "http://www.w3.org/TR/2001/REC-SVG-20010904/DTD/svg10.dtd">
<svg version="1.0" xmlns="http://www.w3.org/2000/svg"
 width="512.000000pt" height="512.000000pt" viewBox="0 0 512.000000 512.000000"
 preserveAspectRatio="xMidYMid meet">

<g transform="translate(0.000000,512.000000) scale(0.100000,-0.100000)"
fill="#000000" stroke="none">
<path d="M820 4871 l0 -150 -267 -3 c-267 -3 -268 -3 -325 -30 -80 -37 -152
-107 -191 -187 l-32 -66 -3 -1517 -2 -1518 75 0 75 0 0 970 0 970 2410 0 2410
0 0 -295 0 -295 75 0 76 0 -3 843 -3 842 -32 66 c-39 80 -111 150 -191 187
-57 27 -58 27 -334 30 l-278 3 0 150 0 149 -75 0 -75 0 0 -150 0 -150 -1085 0
-1085 0 0 -75 0 -75 1085 0 1085 0 0 -94 0 -95 -53 -24 c-192 -88 -242 -330
-101 -487 21 -23 61 -54 88 -68 44 -23 64 -27 136 -27 68 0 94 4 131 23 173
85 231 306 120 459 -33 45 -103 98 -144 109 -27 6 -27 6 -27 105 l0 99 246 0
c165 0 260 -4 288 -12 54 -16 128 -90 144 -144 9 -30 12 -164 12 -483 l0 -441
-2410 0 -2410 0 0 441 c0 319 3 453 12 483 16 54 90 128 144 144 28 8 121 12
278 12 l236 0 0 -97 0 -98 -47 -19 c-59 -25 -122 -86 -153 -151 -34 -70 -34
-178 -1 -253 70 -156 266 -226 416 -149 111 56 170 154 169 277 -1 124 -58
216 -170 271 l-65 32 3 91 3 91 418 3 417 2 0 75 0 75 -420 0 -420 0 0 150 0
150 -75 0 -75 0 0 -149z m168 -665 c18 -11 42 -40 53 -64 72 -148 -115 -291
-242 -185 -59 50 -73 118 -39 187 44 90 144 117 228 62z m3299 2 c68 -41 92
-154 45 -217 -38 -52 -82 -73 -140 -69 -65 6 -100 29 -130 91 -31 60 -23 115
22 164 56 61 133 73 203 31z"/>
<path d="M2180 4095 l0 -75 75 0 75 0 0 75 0 75 -75 0 -75 0 0 -75z"/>
<path d="M2480 4095 l0 -75 75 0 75 0 0 75 0 75 -75 0 -75 0 0 -75z"/>
<path d="M2780 4095 l0 -75 75 0 75 0 0 75 0 75 -75 0 -75 0 0 -75z"/>
<path d="M2160 2975 l0 -75 350 0 c233 0 350 -3 350 -10 0 -9 -543 -1209 -571
-1262 -7 -13 3 -22 58 -47 36 -18 70 -28 73 -24 4 4 143 306 309 671 l301 663
0 79 0 80 -435 0 -435 0 0 -75z"/>
<path d="M4970 1523 c0 -758 -3 -1090 -11 -1118 -15 -53 -91 -129 -144 -144
-57 -16 -4453 -16 -4510 0 -53 15 -129 91 -144 144 -7 26 -11 179 -11 443 l0
402 -75 0 -76 0 3 -432 3 -433 31 -65 c39 -83 101 -145 184 -184 l65 -31 2275
0 2275 0 65 31 c82 39 144 101 184 184 l31 65 3 1108 2 1107 -75 0 -75 0 0
-1077z"/>
<path d="M2156 1313 c-21 -42 -306 -732 -306 -742 0 -8 112 -61 128 -61 4 0
20 34 37 75 l30 75 185 -2 184 -3 28 -65 c15 -36 29 -69 31 -75 4 -10 137 42
137 54 0 11 -303 746 -313 759 -6 7 -33 12 -68 12 -54 0 -60 -2 -73 -27z m135
-355 c30 -72 56 -135 57 -140 2 -4 -51 -8 -118 -8 -94 0 -121 3 -117 13 44
111 112 267 117 267 4 0 31 -59 61 -132z"/>
<path d="M1030 915 l0 -417 168 5 c198 5 238 16 317 89 131 120 172 358 90
535 -32 71 -104 146 -168 174 -47 21 -69 24 -229 27 l-178 4 0 -417z m343 251
c77 -33 121 -122 121 -246 0 -101 -27 -173 -80 -220 -42 -37 -70 -44 -159 -45
l-70 0 -3 263 -2 262 80 0 c46 0 94 -6 113 -14z"/>
<path d="M2760 1289 c-30 -22 -55 -45 -54 -52 1 -8 54 -86 118 -174 l116 -161
0 -196 0 -196 75 0 75 0 0 201 0 200 115 159 c63 88 115 163 115 168 0 4 -26
26 -58 49 l-57 40 -97 -134 -96 -134 -92 128 c-51 70 -95 131 -99 135 -3 4
-31 -11 -61 -33z"/>
<path d="M3737 1300 c-120 -30 -191 -111 -191 -220 -1 -43 6 -66 27 -102 32
-55 58 -71 202 -128 154 -61 192 -103 145 -163 -50 -63 -175 -59 -266 8 -21
15 -24 13 -75 -35 l-54 -50 30 -26 c17 -14 58 -39 92 -55 193 -93 409 -5 439
178 10 66 -12 122 -70 179 -43 42 -71 58 -175 99 -140 55 -166 78 -140 124 29
52 121 61 204 19 l39 -20 48 53 47 54 -27 23 c-60 49 -198 80 -275 62z"/>
</g>
</svg>
