<?xml version="1.0" standalone="no"?>
<!DOCTYPE svg PUBLIC "-//W3C//DTD SVG 20010904//EN"
 "http://www.w3.org/TR/2001/REC-SVG-20010904/DTD/svg10.dtd">
<svg version="1.0" xmlns="http://www.w3.org/2000/svg"
 width="512.000000pt" height="512.000000pt" viewBox="0 0 512.000000 512.000000"
 preserveAspectRatio="xMidYMid meet">

<g transform="translate(0.000000,512.000000) scale(0.100000,-0.100000)"
fill="#000000" stroke="none">
<path d="M1005 5111 c-145 -38 -233 -150 -243 -308 l-5 -83 -153 0 c-84 0
-177 -5 -206 -11 -187 -39 -348 -200 -387 -387 -8 -37 -11 -485 -11 -1510 0
-1594 -3 -1509 58 -1632 41 -82 135 -173 223 -215 41 -19 98 -39 128 -45 34
-6 437 -10 1110 -10 l1057 0 33 -83 c145 -359 440 -639 801 -760 146 -48 233
-61 410 -61 180 0 262 12 414 64 194 65 354 165 502 314 187 186 303 402 360
668 26 117 25 380 0 498 -96 445 -389 795 -803 959 -92 37 -254 77 -333 83
l-35 3 -5 865 c-5 862 -5 865 -27 923 -63 167 -205 291 -371 326 -29 6 -122
11 -206 11 l-153 0 -5 84 c-5 70 -11 94 -38 145 -37 69 -69 100 -144 139 -44
22 -63 26 -136 26 -100 0 -160 -24 -225 -89 -59 -59 -87 -124 -93 -222 l-5
-83 -557 0 -557 0 -5 84 c-5 70 -11 94 -38 145 -37 69 -69 100 -142 137 -54
27 -159 40 -213 25z m159 -230 l31 -31 0 -230 0 -230 -33 -32 c-28 -28 -39
-33 -82 -33 -43 0 -54 5 -82 33 l-33 32 0 229 0 229 25 27 c33 36 57 46 104
41 27 -3 49 -14 70 -35z m1760 0 l31 -31 0 -230 0 -230 -33 -32 c-28 -28 -39
-33 -82 -33 -43 0 -54 5 -82 33 l-33 32 0 229 0 229 25 27 c33 36 57 46 104
41 27 -3 49 -14 70 -35z m-2162 -444 c9 -133 61 -219 170 -278 58 -31 70 -34
148 -34 78 0 90 3 148 34 109 59 161 145 170 278 l5 83 557 0 557 0 5 -84 c5
-70 11 -94 38 -145 37 -69 69 -100 144 -139 43 -22 64 -26 136 -26 78 -1 90 2
148 33 109 59 161 145 170 279 l5 84 166 -4 c158 -3 169 -4 223 -31 64 -32
111 -80 142 -146 19 -42 21 -67 24 -273 l3 -228 -666 0 c-723 0 -708 1 -733
-55 -15 -33 -15 -57 0 -90 25 -56 10 -55 733 -55 l665 0 -2 -522 -3 -523 -63
-7 c-201 -22 -435 -117 -604 -244 l-58 -44 0 253 c0 274 -6 321 -56 419 -38
75 -130 163 -211 201 -65 30 -74 32 -188 32 -114 0 -123 -2 -188 -32 -80 -38
-173 -122 -210 -191 -56 -104 -58 -127 -55 -535 l3 -373 38 -76 c80 -162 221
-256 394 -261 40 -1 73 -3 73 -4 0 -2 -11 -46 -25 -98 -36 -139 -48 -261 -41
-403 l6 -122 -1053 2 -1052 3 -46 21 c-60 28 -125 93 -153 153 l-21 46 -3
1153 -2 1152 664 0 c494 0 672 3 691 12 47 21 67 82 43 133 -25 56 -10 55
-733 55 l-665 0 0 208 c0 231 8 279 59 349 70 97 143 122 347 123 l151 0 5
-83z m1886 -1453 c64 -32 108 -83 127 -148 22 -72 22 -650 0 -722 -41 -139
-198 -214 -337 -161 -58 22 -129 98 -146 155 -8 27 -12 144 -12 373 0 330 0
335 24 384 45 95 121 144 227 145 51 0 77 -6 117 -26z m1397 -608 c219 -47
400 -148 560 -311 498 -508 389 -1339 -224 -1709 -91 -55 -224 -108 -333 -133
-101 -23 -355 -23 -456 0 -429 98 -756 428 -849 855 -22 97 -24 328 -4 427 44
224 150 418 316 580 168 165 374 267 611 305 81 12 294 5 379 -14z"/>
<path d="M1911 3826 c-87 -48 -50 -186 49 -186 51 0 100 49 100 99 0 75 -83
124 -149 87z"/>
<path d="M1213 3191 c-143 -53 -258 -190 -271 -323 -4 -42 -1 -50 26 -78 23
-23 39 -30 69 -30 51 1 78 24 103 93 40 107 108 157 214 157 228 0 300 -305
96 -410 -20 -10 -58 -21 -85 -25 -65 -10 -81 -19 -101 -57 -33 -63 7 -131 85
-143 109 -17 163 -52 200 -129 69 -142 -38 -309 -199 -309 -121 0 -220 100
-220 222 0 78 -110 122 -165 67 -34 -34 -40 -68 -26 -144 15 -84 51 -153 112
-217 266 -282 743 -71 716 316 -6 92 -43 183 -101 246 -20 22 -36 44 -36 49 0
5 12 20 27 34 90 86 133 245 102 379 -27 118 -124 237 -236 289 -78 36 -230
42 -310 13z"/>
<path d="M3767 2189 c-28 -16 -47 -64 -47 -118 0 -47 -2 -51 -27 -57 -96 -23
-189 -104 -237 -204 -28 -58 -31 -75 -31 -160 0 -77 4 -104 22 -142 30 -66 98
-128 193 -177 l80 -42 0 -254 0 -254 -32 5 c-18 3 -69 23 -112 46 -62 31 -86
38 -111 34 -77 -15 -106 -107 -52 -164 39 -40 145 -90 232 -109 l75 -17 0 -48
c0 -83 35 -128 100 -128 67 0 100 45 100 135 0 51 2 56 28 66 119 44 214 128
262 231 105 225 31 444 -185 548 -45 22 -87 40 -93 40 -9 0 -12 52 -12 195 0
107 2 195 5 195 3 0 32 -13 65 -30 74 -37 101 -38 142 -1 42 38 46 96 8 136
-29 31 -117 78 -178 94 l-42 12 0 50 c0 55 -20 103 -49 119 -25 13 -81 12
-104 -1z m-47 -524 c0 -100 -3 -145 -11 -145 -6 0 -29 17 -50 39 -34 33 -39
45 -39 82 0 55 29 119 65 147 15 12 29 22 31 22 2 0 4 -65 4 -145z m252 -480
c107 -73 114 -230 13 -331 -25 -24 -49 -44 -55 -44 -6 0 -10 70 -10 200 0 110
3 200 8 200 4 0 24 -11 44 -25z"/>
</g>
</svg>
