<?xml version="1.0" standalone="no"?>
<!DOCTYPE svg PUBLIC "-//W3C//DTD SVG 20010904//EN"
 "http://www.w3.org/TR/2001/REC-SVG-20010904/DTD/svg10.dtd">
<svg version="1.0" xmlns="http://www.w3.org/2000/svg"
 width="512.000000pt" height="512.000000pt" viewBox="0 0 512.000000 512.000000"
 preserveAspectRatio="xMidYMid meet">

<g transform="translate(0.000000,512.000000) scale(0.100000,-0.100000)"
fill="#000000" stroke="none">
<path d="M279 5106 c-103 -27 -199 -111 -247 -214 l-27 -57 0 -1750 0 -1750
28 -58 c37 -74 110 -147 184 -184 l58 -28 1548 -3 1547 -2 0 -498 c0 -379 3
-503 13 -522 16 -32 58 -47 90 -33 13 6 140 148 283 316 l259 306 69 0 c38 1
224 -6 413 -14 312 -14 347 -14 369 0 26 17 39 53 29 84 -3 11 -90 97 -192
193 l-186 173 164 5 c142 5 171 8 213 28 104 47 179 134 210 243 15 50 16 225
14 1775 l-3 1719 -28 61 c-36 77 -113 154 -192 191 -60 28 -60 28 -312 31
l-252 4 -26 -26 c-30 -31 -32 -64 -4 -100 l20 -26 226 0 c263 0 289 -5 353
-70 60 -60 70 -97 70 -269 l0 -141 -2410 0 -2410 0 0 141 c0 83 5 159 12 183
16 54 90 128 144 144 32 9 451 12 1837 12 1739 0 1796 1 1818 19 32 26 32 86
0 112 -23 18 -79 19 -1830 18 -1398 0 -1816 -3 -1852 -13z m2932 -808 c-20
-46 -290 -645 -311 -690 l-13 -28 -1092 0 -1092 0 -61 -30 c-68 -35 -115 -82
-146 -149 -20 -45 -21 -59 -21 -516 l0 -470 28 -57 c34 -70 101 -131 170 -155
46 -16 89 -18 353 -18 283 0 303 1 323 19 26 24 28 76 4 105 -17 20 -28 20
-318 23 -343 3 -351 5 -392 88 -23 44 -23 48 -23 465 0 388 2 423 19 461 11
24 33 50 53 62 l35 22 1813 0 c1774 0 1813 0 1844 -19 17 -11 40 -35 51 -53
19 -32 20 -51 20 -473 0 -422 -1 -441 -20 -473 -11 -18 -36 -43 -55 -55 l-35
-22 -1339 -3 c-1225 -2 -1341 -4 -1358 -19 -26 -23 -24 -85 3 -109 20 -18 42
-19 310 -22 159 -2 289 -6 289 -10 0 -4 -96 -219 -212 -479 l-213 -473 -755 0
-755 0 -52 30 c-36 21 -61 44 -80 77 l-28 48 -3 1483 -2 1482 1540 0 1539 0
-18 -42z m1759 -1432 l0 -1474 -28 -53 c-21 -42 -40 -61 -82 -86 l-54 -33
-228 0 -228 0 -313 292 c-171 160 -367 343 -435 407 -110 102 -128 115 -159
115 -25 0 -41 -7 -54 -23 -18 -22 -19 -47 -19 -407 l0 -384 -690 0 -690 0 9
23 c5 12 102 227 215 477 l205 455 973 5 c802 4 979 8 1008 19 58 23 118 69
148 114 57 83 57 83 57 577 l0 455 -26 55 c-37 78 -71 114 -141 149 l-61 31
-659 0 c-362 0 -658 3 -658 8 0 4 75 175 167 380 l168 372 787 0 788 0 0
-1474z m-368 -2103 c-9 -2 -140 3 -290 10 l-273 12 -70 160 c-38 88 -77 166
-86 173 -23 16 -64 15 -90 -3 -42 -29 -38 -56 37 -226 59 -136 69 -164 58
-178 -11 -14 -338 -401 -360 -426 -4 -5 -8 332 -8 748 l0 757 550 -512 c351
-328 543 -514 532 -515z"/>
<path d="M1170 3246 c-118 -26 -218 -105 -266 -209 -26 -55 -29 -73 -29 -157
1 -114 20 -164 91 -240 142 -152 358 -169 497 -38 42 40 49 82 20 116 -29 34
-64 37 -103 8 -66 -48 -119 -69 -162 -62 -181 29 -259 228 -143 363 65 76 174
96 274 50 44 -21 58 -23 82 -15 33 11 49 35 49 73 0 76 -180 140 -310 111z"/>
<path d="M1695 3254 c-11 -4 -28 -13 -37 -22 -17 -14 -18 -44 -18 -348 l0
-333 26 -20 c35 -27 57 -26 91 3 26 22 28 31 33 116 l5 93 97 -111 c54 -61
107 -113 118 -117 49 -16 110 49 91 97 -6 12 -44 61 -85 107 l-75 85 49 28
c71 41 104 94 108 177 4 74 -9 117 -52 168 -46 55 -101 74 -223 78 -59 2 -117
2 -128 -1z m198 -155 c29 -8 42 -18 51 -41 27 -64 -14 -108 -100 -108 l-54 0
0 80 0 80 33 0 c17 0 49 -5 70 -11z"/>
<path d="M2284 3246 c-17 -7 -34 -21 -38 -31 -3 -9 -6 -157 -6 -329 0 -302 1
-314 21 -340 l20 -26 150 0 c87 0 159 4 170 11 48 25 44 105 -7 128 -14 6 -65
11 -114 11 l-90 0 0 69 0 69 95 4 c104 3 120 11 131 65 5 26 1 37 -19 57 -24
24 -33 26 -117 26 l-90 0 0 75 0 75 103 0 c91 0 106 2 122 20 25 28 23 76 -4
103 -20 20 -33 22 -159 25 -101 2 -145 -2 -168 -12z"/>
<path d="M2821 3250 c-50 -22 -50 -25 -51 -348 0 -317 4 -350 45 -366 33 -12
231 -6 282 9 70 21 135 81 175 163 32 64 33 71 33 187 0 111 -2 125 -28 181
-34 74 -85 125 -151 155 -38 16 -74 22 -165 25 -67 2 -126 0 -140 -6z m263
-167 c50 -30 76 -93 76 -188 0 -64 -5 -90 -22 -125 -34 -64 -66 -84 -148 -88
l-70 -4 0 217 0 218 66 -6 c36 -4 80 -15 98 -24z"/>
<path d="M3784 3250 c-26 -10 -54 -48 -54 -71 0 -9 9 -28 20 -42 18 -22 30
-26 83 -29 l62 -3 3 -276 c2 -262 3 -277 22 -294 28 -25 76 -23 103 4 21 21
22 29 25 296 l3 275 59 0 c61 0 83 11 95 51 11 32 -13 76 -47 88 -37 13 -343
14 -374 1z"/>
<path d="M3470 3230 c-19 -19 -20 -33 -20 -341 0 -207 4 -327 11 -340 25 -48
105 -44 128 7 7 17 11 125 11 330 0 354 -2 363 -77 364 -20 0 -41 -8 -53 -20z"/>
<path d="M406 4779 c-52 -41 -23 -129 44 -129 67 0 96 88 44 129 -15 12 -34
21 -44 21 -10 0 -29 -9 -44 -21z"/>
<path d="M715 4775 c-30 -30 -32 -64 -4 -99 51 -65 145 -6 117 74 -18 52 -74
65 -113 25z"/>
<path d="M1047 4793 c-24 -6 -50 -59 -41 -86 18 -62 86 -78 123 -31 28 35 26
69 -4 99 -23 24 -40 28 -78 18z"/>
</g>
</svg>
